PathFileType	4	(X/Y/Z)	/Users/itak/Documents/Research/Walk-IL/dataset/trc/00222_00009.trc
DataRate	CameraRate	NumFrames	NumMarkers	Units	OrigDataRate	OrigDataStartFrame	OrigNumFrames
100.000000	100.000000	4	53	mm	100.000000	59	477
Frame#	Time	RPSI			LPSI			L3			STRN			T10			C7			CLAV			RBAK			LBAK			LSHO			LUPA			LAEL			LAOL			LWTS			LWPS			LFRA			LIFD			LHPS			LHTS			RSHO			RUPA			RAEL			RAOL			RWTS			RWPS			RFRA			RIFD			RHTS			RHPS			RBHD			LFHD			RFHD			LBHD			LHIP			RHIP			RASI			LASI			LKNE			LTHI			LANK			LTIP			LTOE			LMT1			LMT5			LHEE			RKNE			RANK			RTIP			RTOE			RMT1			RMT5			RHEE			RTHI			
		X1	Y1	Z1	X2	Y2	Z2	X3	Y3	Z3	X4	Y4	Z4	X5	Y5	Z5	X6	Y6	Z6	X7	Y7	Z7	X8	Y8	Z8	X9	Y9	Z9	X10	Y10	Z10	X11	Y11	Z11	X12	Y12	Z12	X13	Y13	Z13	X14	Y14	Z14	X15	Y15	Z15	X16	Y16	Z16	X17	Y17	Z17	X18	Y18	Z18	X19	Y19	Z19	X20	Y20	Z20	X21	Y21	Z21	X22	Y22	Z22	X23	Y23	Z23	X24	Y24	Z24	X25	Y25	Z25	X26	Y26	Z26	X27	Y27	Z27	X28	Y28	Z28	X29	Y29	Z29	X30	Y30	Z30	X31	Y31	Z31	X32	Y32	Z32	X33	Y33	Z33	X34	Y34	Z34	X35	Y35	Z35	X36	Y36	Z36	X37	Y37	Z37	X38	Y38	Z38	X39	Y39	Z39	X40	Y40	Z40	X41	Y41	Z41	X42	Y42	Z42	X43	Y43	Z43	X44	Y44	Z44	X45	Y45	Z45	X46	Y46	Z46	X47	Y47	Z47	X48	Y48	Z48	X49	Y49	Z49	X50	Y50	Z50	X51	Y51	Z51	X52	Y52	Z52	X53	Y53	Z53	

60	0.59	-1178.396240234375	1055.543701171875	-126.1993560791016	-1184.782348632812	1061.098266601562	-5.497968196868896	-1175.26904296875	1133.207397460938	-48.52331924438477	-1414.859375	1331.6865234375	-53.4163818359375	-1162.7138671875	1257.132690429688	-52.18530654907227	-1209.927612304688	1521.7548828125	-45.72093963623047	-1381.5263671875	1448.00732421875	-51.32240295410156	-1139.423095703125	1380.748168945312	-120.2400283813477	-1196.08447265625	1480.671752929688	65.55033111572266	-1287.717041015625	1487.035400390625	119.2683486938477	-1269.49462890625	1365.849243164062	197.5054168701172	-1304.959594726562	1155.031616210938	214.7032165527344	-1228.87744140625	1134.557250976562	175.4344329833984	-1409.007690429688	935.0800170898438	130.6923217773438	-1395.473510742188	910.4611206054688	210.8797149658203	-1339.176147460938	1049.526611328125	218.5259857177734	-1435.208374023438	741.3856201171875	123.8899917602539	-1419.761108398438	824.5564575195312	197.6681518554688	-1455.752075195312	836.4329223632812	140.6548156738281	-1265.494873046875	1488.148681640625	-216.6209716796875	-1247.18505859375	1423.631591796875	-284.6791076660156	-1243.201782226562	1142.580688476562	-327.4223327636719	-1206.640747070312	1132.217163085938	-240.0421142578125	-1390.26953125	936.0355834960938	-284.947021484375	-1339.572143554688	919.2472534179688	-349.8387451171875	-1274.039428710938	1075.715698242188	-340.3582458496094	-1415.126098632812	743.8895874023438	-279.2275390625	-1436.504516601562	817.8704223632812	-299.4816284179688	-1385.086181640625	814.3348388671875	-350.5806274414062	-1229.288940429688	1668.796508789062	-96.30469512939453	-1424.145263671875	1746.679565429688	-5.447719573974609	-1421.511840820312	1745.259155273438	-105.3841171264648	-1276.276489257812	1684.007568359375	35.41122817993164	-1293.26953125	996.8369140625	129.7519989013672	-1270.921020507812	1013.588012695312	-236.5457916259766	-1368.509765625	1057.309814453125	-204.5904541015625	-1390.072509765625	1037.49462890625	76.03755950927734	-1314.1611328125	509.9954528808594	83.14506530761719	-1316.354736328125	653.7078857421875	116.1881866455078	-1236.315063476562	40.84327697753906	70.23281097412109	-1267.133178710938	288.3962097167969	88.85710906982422	-1449.581665039062	46.22732543945312	9.361020088195801	-1379.803588867188	41.23593902587891	-32.1841926574707	-1364.637084960938	40.60896682739258	83.80793762207031	-1173.000244140625	47.87470245361328	20.13043785095215	-1298.480346679688	518.6422119140625	-193.2640075683594	-1217.746826171875	40.82475662231445	-159.3078155517578	-1301.08935546875	402.8402404785156	-173.3600158691406	-1430.458862304688	47.06447219848633	-120.0326766967773	-1375.148315429688	45.91081237792969	-76.7828369140625	-1326.726806640625	40.59769058227539	-187.5456085205078	-1156.455810546875	42.77306747436523	-98.12891387939453	nan	nan	nan	
61	0.6	-1178.468383789062	1055.485595703125	-126.3633193969727	-1184.830078125	1061.081420898438	-5.654308795928955	-1175.258911132812	1133.218383789062	-48.6804313659668	-1414.837768554688	1331.696533203125	-53.7037467956543	-1162.568237304688	1257.165405273438	-52.28139877319336	-1209.879150390625	1521.801147460938	-45.87763977050781	-1381.48779296875	1448.026245117188	-51.54368209838867	-1139.308837890625	1380.780639648438	-120.3519287109375	-1196.191284179688	1480.713745117188	65.44197845458984	-1287.796508789062	1487.026245117188	119.0714263916016	-1269.575561523438	1365.849609375	197.3300476074219	-1304.896728515625	1155.011352539062	214.5883026123047	-1228.779907226562	1134.62890625	175.3534088134766	-1408.450927734375	934.7410888671875	130.9435119628906	-1394.943359375	910.26904296875	211.0680541992188	-1338.944213867188	1049.495483398438	218.515869140625	-1434.224487304688	740.9505004882812	124.283332824707	-1419.100219726562	824.3342895507812	197.9201507568359	-1454.957885742188	835.9682006835938	140.9610595703125	-1265.428833007812	1488.161987304688	-216.8289642333984	-1247.017578125	1423.66455078125	-284.8418884277344	-1242.959594726562	1142.630737304688	-327.626953125	-1206.503295898438	1132.240234375	-240.2880096435547	-1390.084106445312	936.0899047851562	-285.271240234375	-1339.3486328125	919.292236328125	-350.138916015625	-1273.847534179688	1075.7734375	-340.6142883300781	-1415.080200195312	743.9762573242188	-279.6295166015625	-1436.469116210938	817.980712890625	-299.918212890625	-1384.914306640625	814.4312744140625	-350.9401245117188	-1229.216430664062	1668.841796875	-96.47087097167969	-1424.3173828125	1746.620971679688	-5.661507606506348	-1421.643188476562	1745.227905273438	-105.6597366333008	-1276.478637695312	1684.05078125	35.21964263916016	-1293.308471679688	996.90380859375	129.6152496337891	-1271.001953125	1013.566284179688	-236.8317108154297	-1368.375	1057.328002929688	-204.7818908691406	-1390.077758789062	1037.52197265625	75.82849884033203	-1314.24755859375	510.0284729003906	83.16695404052734	-1316.412109375	653.7521362304688	116.1087188720703	-1236.3232421875	40.8319206237793	70.24330902099609	-1267.128540039062	288.4227600097656	88.83477783203125	-1449.602172851562	46.1884765625	9.383195877075195	-1379.814331054688	41.25422286987305	-32.15044021606445	-1364.6259765625	40.55173873901367	83.87023162841797	-1172.973388671875	47.96476745605469	20.18624877929688	-1298.733520507812	518.6447143554688	-193.3565826416016	-1217.756958007812	40.84548187255859	-159.2945404052734	-1301.328002929688	402.8032836914062	-173.4200897216797	-1430.466796875	47.0558967590332	-120.0376129150391	-1375.163940429688	45.90508651733398	-76.78684997558594	-1326.7294921875	40.60102462768555	-187.5380706787109	-1156.464965820312	42.79071426391602	-98.11032104492188	nan	nan	nan	
62	0.61	-1178.507934570312	1055.425170898438	-126.522819519043	-1184.825927734375	1061.073974609375	-5.825410842895508	-1175.231201171875	1133.238159179688	-48.83869934082031	-1414.803100585938	1331.708862304688	-53.99667739868164	-1162.352172851562	1257.216796875	-52.37591552734375	-1209.828735351562	1521.8623046875	-46.05155181884766	-1381.44970703125	1448.044799804688	-51.78104782104492	-1139.180908203125	1380.830444335938	-120.4866409301758	-1196.290161132812	1480.771118164062	65.31443023681641	-1287.862060546875	1487.0263671875	118.8604278564453	-1269.644897460938	1365.867553710938	197.1473236083984	-1304.796508789062	1155.001831054688	214.4815521240234	-1228.62939453125	1134.7333984375	175.2713165283203	-1407.801879882812	934.3803100585938	131.2882385253906	-1394.323120117188	910.0640869140625	211.3211669921875	-1338.6669921875	1049.480712890625	218.5491485595703	-1433.101928710938	740.4774169921875	124.7803421020508	-1418.30322265625	824.0866088867188	198.2657165527344	-1454.070556640625	835.5037231445312	141.3572387695312	-1265.361694335938	1488.187133789062	-217.0499572753906	-1246.8759765625	1423.70263671875	-285.025146484375	-1242.706665039062	1142.688232421875	-327.8455810546875	-1206.353881835938	1132.275390625	-240.543212890625	-1389.861694335938	936.129150390625	-285.6365051269531	-1339.068725585938	919.3402099609375	-350.47216796875	-1273.634765625	1075.841430664062	-340.882568359375	-1414.990600585938	744.0477905273438	-280.1093444824219	-1436.357421875	818.0643310546875	-300.4015502929688	-1384.659301757812	814.5136108398438	-351.3383483886719	-1229.153930664062	1668.88330078125	-96.653564453125	-1424.470825195312	1746.570434570312	-5.873788833618164	-1421.757934570312	1745.202880859375	-105.9506759643555	-1276.66650390625	1684.091186523438	35.02734375	-1293.304809570312	996.9783325195312	129.4541625976562	-1271.01611328125	1013.545043945312	-237.1172332763672	-1368.234130859375	1057.353149414062	-204.9863586425781	-1390.060424804688	1037.544311523438	75.60916137695312	-1314.350708007812	510.0682067871094	83.19346618652344	-1316.470947265625	653.80810546875	116.0307922363281	-1236.334838867188	40.82242965698242	70.25340270996094	-1267.146850585938	288.4525146484375	88.80574035644531	-1449.627319335938	46.14457702636719	9.406846046447754	-1379.830200195312	41.27394104003906	-32.11346817016602	-1364.616088867188	40.49278259277344	83.94621276855469	-1172.953979492188	48.06074905395508	20.24735450744629	-1299.003051757812	518.648681640625	-193.4523162841797	-1217.765380859375	40.86695861816406	-159.2785339355469	-1301.591430664062	402.7679748535156	-173.48291015625	-1430.4765625	47.04446029663086	-120.0427474975586	-1375.178466796875	45.89657211303711	-76.7919921875	-1326.733520507812	40.60405731201172	-187.5297088623047	-1156.470336914062	42.80955123901367	-98.08792114257812	nan	nan	nan	
63	0.62	-1178.505126953125	1055.36572265625	-126.6841354370117	-1184.764038085938	1061.077270507812	-6.017622470855713	-1175.17578125	1133.270629882812	-49.00281524658203	-1414.752075195312	1331.721923828125	-54.29318237304688	-1162.079833984375	1257.28564453125	-52.47543716430664	-1209.781494140625	1521.93603515625	-46.24106216430664	-1381.4140625	1448.061889648438	-52.03811264038086	-1139.044921875	1380.900634765625	-120.6474151611328	-1196.375610351562	1480.843872070312	65.16342163085938	-1287.908935546875	1487.038330078125	118.635124206543	-1269.701782226562	1365.903930664062	196.9568634033203	-1304.660034179688	1155.007080078125	214.3831329345703	-1228.428588867188	1134.871704101562	175.1851196289062	-1407.072875976562	934.0120849609375	131.7156677246094	-1393.6201171875	909.8527221679688	211.6371307373047	-1338.344360351562	1049.48193359375	218.6211547851562	-1431.83837890625	739.979736328125	125.3793258666992	-1417.37158203125	823.8150024414062	198.7048492431641	-1453.103637695312	835.0510864257812	141.834228515625	-1265.290893554688	1488.224853515625	-217.2823486328125	-1246.76123046875	1423.746215820312	-285.2313537597656	-1242.45361328125	1142.75244140625	-328.0859375	-1206.192260742188	1132.322143554688	-240.8032989501953	-1389.610595703125	936.1561889648438	-286.0433654785156	-1338.74560546875	919.3930053710938	-350.8404541015625	-1273.394165039062	1075.918823242188	-341.1642150878906	-1414.863159179688	744.1061401367188	-280.6659851074219	-1436.172241210938	818.1216430664062	-300.9276428222656	-1384.331298828125	814.58056640625	-351.7758178710938	-1229.114501953125	1668.921020507812	-96.85221099853516	-1424.599243164062	1746.526733398438	-6.08661937713623	-1421.85107421875	1745.184326171875	-106.2486419677734	-1276.833984375	1684.126953125	34.83357238769531	-1293.242309570312	997.0599365234375	129.2683563232422	-1270.949951171875	1013.52392578125	-237.3984527587891	-1368.088012695312	1057.384887695312	-205.2068634033203	-1390.020751953125	1037.568115234375	75.37948608398438	-1314.479125976562	510.1134338378906	83.21401214599609	-1316.536376953125	653.8770141601562	115.9509201049805	-1236.35009765625	40.81616592407227	70.26272583007812	-1267.195068359375	288.4851989746094	88.76848602294922	-1449.656616210938	46.09584045410156	9.430570602416992	-1379.8525390625	41.29624176025391	-32.07327651977539	-1364.607177734375	40.43219757080078	84.03640747070312	-1172.94580078125	48.15579223632812	20.306396484375	-1299.286010742188	518.6531982421875	-193.5505676269531	-1217.773803710938	40.88979339599609	-159.2604675292969	-1301.881103515625	402.7355346679688	-173.5493774414062	-1430.487915039062	47.03056335449219	-120.0472564697266	-1375.192260742188	45.8861198425293	-76.79721069335938	-1326.739379882812	40.60831069946289	-187.5195770263672	-1156.472778320312	42.82942581176758	-98.06155395507812	nan	nan	nan	
